<svg width="52" height="43" viewBox="0 0 52 43" fill="none" xmlns="http://www.w3.org/2000/svg">
  <path d="M23.6 42.2C22.4 42.2 21.4 41.8 20.6 41C19.8 40.2 19.4 39.2 19.4 38V24.2C19.4 21 20.2 17.8 21.8 14.6C23.4 11.4 25.6 8.6 28.4 6.2C31.2 3.8 34.4 2 38 0.799999L40.4 4.6C37.6 6.2 35.2 8.2 33.2 10.6C31.2 13 30.2 15.6 30.2 18.4V20.4H42.2V42.2H23.6ZM0.800001 42.2C-0.399999 42.2 -1.4 41.8 -2.2 41C-3 40.2 -3.4 39.2 -3.4 38V24.2C-3.4 21 -2.6 17.8 -1 14.6C0.6 11.4 2.8 8.6 5.6 6.2C8.4 3.8 11.6 2 15.2 0.799999L17.6 4.6C14.8 6.2 12.4 8.2 10.4 10.6C8.4 13 7.4 15.6 7.4 18.4V20.4H19.4V42.2H0.800001Z" fill="#D8B4A8"/>
</svg>
