<svg width="52" height="43" viewBox="0 0 52 43" fill="none" xmlns="http://www.w3.org/2000/svg">
  <path d="M28.4 0.8C29.6 0.8 30.6 1.2 31.4 2C32.2 2.8 32.6 3.8 32.6 4.99999V18.8C32.6 22 31.8 25.2 30.2 28.4C28.6 31.6 26.4 34.4 23.6 36.8C20.8 39.2 17.6 41 14 42.2L11.6 38.4C14.4 36.8 16.8 34.8 18.8 32.4C20.8 30 21.8 27.4 21.8 24.6V22.6H9.8V0.799999H28.4ZM51.2 0.8C52.4 0.8 53.4 1.2 54.2 2C55 2.8 55.4 3.8 55.4 4.99999V18.8C55.4 22 54.6 25.2 53 28.4C51.4 31.6 49.2 34.4 46.4 36.8C43.6 39.2 40.4 41 36.8 42.2L34.4 38.4C37.2 36.8 39.6 34.8 41.6 32.4C43.6 30 44.6 27.4 44.6 24.6V22.6H32.6V0.799999H51.2Z" fill="#D8B4A8"/>
</svg>
